<?xml version="1.0" encoding="UTF-8"?>
<svg width="90px" height="32px" viewBox="0 0 90 32" version="1.1" xmlns="http://www.w3.org/2000/svg" xmlns:xlink="http://www.w3.org/1999/xlink">
    <title>logo</title>
    <g id="logo" stroke="none" stroke-width="1" fill="none" fill-rule="evenodd">
        <g id="Group" transform="translate(4.000000, 4.000000)" fill-rule="nonzero">
            <path d="M41.2494569,6.77425769 C41.3491569,6.77425769 41.4275569,6.80275769 41.4845569,6.85975769 C41.5415569,6.91675769 41.5700569,6.99515769 41.5700569,7.09495769 L41.5700569,9.91625769 C41.5700569,10.0160577 41.5415569,10.0943577 41.4845569,10.1513577 C41.4275569,10.2083577 41.3491569,10.2368577 41.2494569,10.2368577 L37.6586569,10.2368577 C37.5873569,10.2368577 37.5517569,10.2724577 37.5517569,10.3437577 L37.5517569,21.4154577 C37.5517569,21.5151577 37.5232569,21.5935577 37.4662569,21.6505577 C37.4092569,21.7075577 37.3308569,21.7360577 37.2311569,21.7360577 L33.8540569,21.7360577 C33.7543569,21.7360577 33.6759569,21.7075577 33.6189569,21.6505577 C33.5619569,21.5935577 33.5334569,21.5151577 33.5334569,21.4154577 L33.5334569,10.3437577 C33.5334569,10.2724577 33.4978569,10.2368577 33.4265569,10.2368577 L29.9426569,10.2368577 C29.8428569,10.2368577 29.7645569,10.2083577 29.7075569,10.1513577 C29.6505569,10.0943577 29.6220569,10.0160577 29.6220569,9.91625769 L29.6220569,7.09495769 C29.6220569,6.99515769 29.6505569,6.91675769 29.7075569,6.85975769 C29.7645569,6.80275769 29.8428569,6.77425769 29.9426569,6.77425769 L41.2494569,6.77425769 Z M47.2069569,21.6933577 C47.1071569,21.6933577 47.0287569,21.6648577 46.9718569,21.6078577 C46.9148569,21.5508577 46.8863569,21.4724577 46.8863569,21.3726577 L46.8863569,16.6490577 L46.8649569,16.5208577 L42.5046569,7.15905769 L42.4619569,6.98805769 C42.4619569,6.84555769 42.5545569,6.77425769 42.7397569,6.77425769 L46.4160569,6.77425769 C46.6013569,6.77425769 46.7295569,6.85975769 46.8008569,7.03075769 L48.8313569,12.1391577 C48.8740569,12.2388577 48.9168569,12.2388577 48.9595569,12.1391577 L50.9900569,7.03075769 C51.0613569,6.85975769 51.1895569,6.77425769 51.3748569,6.77425769 L55.0725569,6.77425769 C55.2577569,6.77425769 55.3503569,6.84555769 55.3503569,6.98805769 L55.3076569,7.15905769 L50.9046569,16.5208577 C50.8903569,16.5493577 50.8832569,16.5920577 50.8832569,16.6490577 L50.8832569,21.3726577 C50.8832569,21.4724577 50.8547569,21.5508577 50.7977569,21.6078577 C50.7407569,21.6648577 50.6623569,21.6933577 50.5626569,21.6933577 L47.2069569,21.6933577 Z M65.0833569,7.09495769 C65.0833569,6.99515769 65.1118569,6.91675769 65.1688569,6.85975769 C65.2258569,6.80275769 65.3042569,6.77425769 65.4039569,6.77425769 L68.7810569,6.77425769 C68.8808569,6.77425769 68.9591569,6.80275769 69.0161569,6.85975769 C69.0731569,6.91675769 69.1016569,6.99515769 69.1016569,7.09495769 L69.1016569,21.4154577 C69.1016569,21.5151577 69.0731569,21.5935577 69.0161569,21.6505577 C68.9591569,21.7075577 68.8808569,21.7360577 68.7810569,21.7360577 L65.5535569,21.7360577 C65.3826569,21.7360577 65.2543569,21.6648577 65.1688569,21.5223577 L60.8085569,14.2551577 C60.7800569,14.2124577 60.7515569,14.1981577 60.7230569,14.2124577 C60.6945569,14.2124577 60.6803569,14.2409577 60.6803569,14.2979577 L60.7230569,21.4154577 C60.7230569,21.5151577 60.6945569,21.5935577 60.6375569,21.6505577 C60.5805569,21.7075577 60.5022569,21.7360577 60.4024569,21.7360577 L57.0253569,21.7360577 C56.9256569,21.7360577 56.8472569,21.7075577 56.7902569,21.6505577 C56.7332569,21.5935577 56.7047569,21.5151577 56.7047569,21.4154577 L56.7047569,7.09495769 C56.7047569,6.99515769 56.7332569,6.91675769 56.7902569,6.85975769 C56.8472569,6.80275769 56.9256569,6.77425769 57.0253569,6.77425769 L60.2528569,6.77425769 C60.4238569,6.77425769 60.5520569,6.84555769 60.6375569,6.98805769 L64.9764569,14.2551577 C65.0049569,14.2979577 65.0334569,14.3192577 65.0619569,14.3192577 C65.0904569,14.3050577 65.1047569,14.2694577 65.1047569,14.2124577 L65.0833569,7.09495769 Z M76.5441569,21.9070577 C75.3899569,21.9070577 74.3639569,21.6861577 73.4662569,21.2444577 C72.5828569,20.8027577 71.8988569,20.1757577 71.4143569,19.3635577 C70.9299569,18.5513577 70.6876569,17.6108577 70.6876569,16.5421577 L70.6876569,7.09495769 C70.6876569,6.99515769 70.7161569,6.91675769 70.7731569,6.85975769 C70.8301569,6.80275769 70.9085569,6.77425769 71.0082569,6.77425769 L74.3853569,6.77425769 C74.4851569,6.77425769 74.5634569,6.80275769 74.6204569,6.85975769 C74.6774569,6.91675769 74.7059569,6.99515769 74.7059569,7.09495769 L74.7059569,16.5421577 C74.7059569,17.1264577 74.8698569,17.5966577 75.1975569,17.9528577 C75.5395569,18.2948577 75.9884569,18.4658577 76.5441569,18.4658577 C77.0856569,18.4658577 77.5202569,18.2877577 77.8479569,17.9314577 C78.1899569,17.5752577 78.3609569,17.1121577 78.3609569,16.5421577 L78.3609569,7.09495769 C78.3609569,6.99515769 78.3894569,6.91675769 78.4464569,6.85975769 C78.5034569,6.80275769 78.5817569,6.77425769 78.6815569,6.77425769 L82.0586569,6.77425769 C82.1583569,6.77425769 82.2367569,6.80275769 82.2937569,6.85975769 C82.3507569,6.91675769 82.3792569,6.99515769 82.3792569,7.09495769 L82.3792569,16.5421577 C82.3792569,17.6108577 82.1369569,18.5513577 81.6525569,19.3635577 C81.1680569,20.1757577 80.4840569,20.8027577 79.6006569,21.2444577 C78.7171569,21.6861577 77.6983569,21.9070577 76.5441569,21.9070577 Z" id="Shape" fill="#9B211A"></path>
            <rect id="Rectangle" fill="#9B211A" x="14.7804569" y="5.73925769" width="4.68097" height="8.21849" rx="0.535989"></rect>
            <rect id="Rectangle" fill="#9B211A" x="19.9965569" y="5.73925769" width="4.68097" height="8.21849" rx="0.535989"></rect>
            <path d="M4.74455688,4.63995769 L13.6330569,13.6253577 C13.8575569,13.8523577 14.2444569,13.6933577 14.2444569,13.3740577 L14.2444569,6.42605769 C14.2444569,6.14535769 14.1377569,5.87505769 13.9461569,5.66985769 L8.80775688,0.170057687 C8.59075688,-0.0621423131 8.22065688,-0.0556423131 8.01195688,0.183957687 L4.72305688,3.95955769 C4.55095688,4.15695769 4.56035688,4.45375769 4.74455688,4.63995769 Z" id="Path" fill="#1ECBE1"></path>
            <path d="M20.6907569,20.8390577 L14.8652569,15.1056577 C14.6373569,14.8813577 14.7961569,14.4936577 15.1158569,14.4936577 L22.0841569,14.4936577 C22.3508569,14.4936577 22.6085569,14.5898577 22.8099569,14.7645577 L25.1288569,16.7757577 C25.3749569,16.9891577 25.3753569,17.3709577 25.1297569,17.5848577 L21.3702569,20.8597577 C21.1731569,21.0314577 20.8770569,21.0224577 20.6907569,20.8390577 Z" id="Path" fill="#1ECBE1"></path>
            <path d="M4.63995688,23.9934577 L13.6253569,15.1049577 C13.8523569,14.8803577 13.6933569,14.4935577 13.3740569,14.4935577 L6.42615688,14.4935577 C6.14535688,14.4935577 5.87505688,14.6001577 5.66985688,14.7918577 L0.170076878,19.9302577 C-0.0621131216,20.1472577 -0.0556731216,20.5173577 0.183936878,20.7260577 L3.95955688,24.0149577 C4.15695688,24.1869577 4.45375688,24.1775577 4.63995688,23.9934577 Z" id="Path" fill="#9B211A"></path>
            <path d="M2.90695688,13.9367633 L12.3099569,13.9367633 C12.6292569,13.9384577 12.7903569,13.5525577 12.5645569,13.3267577 L7.41415688,8.17635769 C7.21405688,7.97625769 6.93395688,7.64415769 6.65105688,7.63625769 L2.90675688,7.63625769 C2.69115688,7.63015769 2.51945688,7.81485769 2.54115688,8.02935769 L2.54115688,13.5460577 C2.55955688,13.7277577 2.72435688,13.9357577 2.90695688,13.9367633 Z" id="Path" fill="#9B211A"></path>
        </g>
    </g>
</svg>